<?xml version="1.0" standalone="no"?><!DOCTYPE svg PUBLIC "-//W3C//DTD SVG 1.1//EN" "http://www.w3.org/Graphics/SVG/1.1/DTD/svg11.dtd"><svg class="icon" width="200px" height="200.00px" viewBox="0 0 1024 1024" version="1.1" xmlns="http://www.w3.org/2000/svg"><path fill="#dbdbdb" d="M527.228843 47.306422c-247.419066 0-447.996291 200.574155-447.996291 447.992197S279.8108 943.29184 527.228843 943.29184 975.222063 742.717685 975.222063 495.29862 774.647909 47.306422 527.228843 47.306422zM796.84956 768.727059c-31.645744-12.748349-26.16287-1.172709-89.291652-27.157523-76.119655-31.29168-94.149287-41.509393-94.149287-41.509393l-0.669242-71.759347c0 0 28.513404-21.476127 37.403888-89.337701 17.795295 5.109368 23.823592-20.711717 24.781406-37.202297 1.059122-15.939017 10.524704-65.623603-11.253298-61.185524 4.457522-33.172517 7.956206-63.154365 6.365988-79.039147-5.442966-55.723116-44.252877-113.909329-142.230352-118.154004-83.299171 4.25593-137.366577 62.470797-142.825916 118.201076-1.565658 15.875572 1.63115 45.834908 6.079462 79.05859-21.76163-4.485151-12.392238 45.278229-11.434423 61.210084 1.046842 16.491603 6.936993 42.400692 24.781406 37.283138 8.857738 67.86669 37.367049 89.511663 37.367049 89.511663l-0.716314 72.129784c0 0-18.033725 10.914584-94.157473 42.203194-63.072501 25.969465-57.656141 13.462616-89.214904 25.824155-70.65827-69.642127-114.464985-166.455079-114.464985-273.504164 0-212.079186 171.925674-384.008954 384.008954-384.008954s384.008954 171.929768 384.008954 384.008954C911.23882 602.308819 867.463828 699.091072 796.84956 768.727059z"  /></svg>
